<?xml version="1.0" standalone="no"?>
<!DOCTYPE svg PUBLIC "-//W3C//DTD SVG 20010904//EN"
 "http://www.w3.org/TR/2001/REC-SVG-20010904/DTD/svg10.dtd">
<svg version="1.0" xmlns="http://www.w3.org/2000/svg"
 width="233.000000pt" height="293.000000pt" viewBox="0 0 233.000000 293.000000"
 preserveAspectRatio="xMidYMid meet">

<g transform="translate(0.000000,293.000000) scale(0.100000,-0.100000)"
fill="#000000" stroke="none">
<path d="M659 2833 c-1 -10 -2 -25 -3 -33 -1 -8 -4 -19 -8 -25 -3 -5 -9 -27
-12 -47 -3 -21 -11 -59 -16 -85 -6 -25 -9 -52 -6 -60 3 -7 1 -13 -5 -13 -6 0
-9 -7 -6 -15 4 -8 1 -17 -4 -21 -6 -3 -9 -17 -6 -30 2 -13 0 -21 -4 -18 -5 3
-10 -7 -10 -23 -1 -15 -3 -37 -5 -48 -2 -11 -5 -31 -6 -45 -2 -14 -7 -28 -13
-32 -5 -4 2 -8 16 -8 15 0 29 -7 33 -15 3 -8 11 -15 18 -15 9 0 9 3 -2 11 -13
9 -13 10 0 7 9 -3 14 -19 15 -46 0 -23 -2 -39 -5 -36 -3 3 -5 11 -5 16 0 6 -6
13 -14 16 -8 3 -11 0 -7 -7 8 -12 -4 -14 -28 -5 -9 3 -16 12 -16 19 0 8 -4 16
-9 19 -5 4 -8 -2 -6 -11 1 -10 0 -22 -4 -28 -3 -5 -6 -15 -7 -22 -1 -6 -7 -35
-13 -64 -9 -41 -9 -54 1 -61 10 -6 9 -8 -3 -8 -28 0 -31 -60 -5 -90 l21 -25
-21 18 c-20 16 -22 16 -28 2 -3 -9 -3 -21 0 -26 3 -6 0 -16 -6 -24 -7 -8 -10
-21 -7 -29 3 -7 1 -18 -4 -23 -5 -5 -10 -27 -13 -48 -2 -22 -8 -51 -14 -65 -9
-23 -21 -81 -27 -135 -2 -11 -10 -51 -19 -88 -9 -37 -18 -85 -22 -105 -3 -20
-8 -48 -10 -62 -3 -14 -7 -34 -9 -45 -1 -11 -7 -33 -14 -48 -6 -15 -13 -51
-16 -80 -3 -29 -16 -99 -31 -157 -17 -71 -22 -106 -14 -108 7 -3 5 -8 -4 -16
-9 -6 -18 -29 -20 -51 -2 -22 -6 -47 -9 -55 -15 -42 -28 -121 -21 -131 4 -8 3
-9 -4 -5 -7 4 -12 2 -12 -3 0 -6 6 -11 13 -11 9 0 9 -2 0 -8 -13 -8 -35 -91
-27 -104 3 -5 1 -14 -4 -21 -12 -15 -44 -166 -37 -177 3 -5 1 -12 -5 -15 -6
-4 -10 -14 -9 -23 1 -10 -1 -24 -4 -32 -4 -8 -8 -26 -9 -40 l-3 -25 311 -3
312 -2 -16 42 c-8 24 -18 86 -22 138 -4 52 -13 115 -20 139 -11 36 -11 44 1
52 12 7 11 11 -4 26 -17 17 -18 17 -11 1 9 -25 -22 -24 -35 1 -9 15 -6 22 14
35 13 9 30 16 37 16 7 0 24 9 37 19 31 24 19 45 -20 37 -35 -7 -38 9 -7 35 18
16 19 19 4 19 -29 0 -9 15 23 18 33 2 39 -6 19 -27 -11 -10 -9 -15 6 -27 11
-8 23 -14 27 -14 15 0 64 132 100 272 22 82 46 163 55 179 15 30 17 31 80 27
51 -2 65 0 68 12 3 8 17 70 32 138 23 101 31 122 46 122 22 0 22 0 1 -182
l-17 -148 -70 -1 c-105 -1 -118 -7 -134 -59 -12 -42 -44 -180 -59 -258 l-6
-33 34 20 c23 14 51 21 87 21 45 0 52 -3 52 -19 0 -11 -5 -23 -10 -26 -5 -3
-10 -13 -10 -22 0 -12 3 -13 14 -4 12 10 17 8 26 -9 6 -11 8 -25 5 -30 -3 -6
-1 -10 5 -10 8 0 8 -6 0 -20 -13 -24 -4 -44 16 -36 16 6 16 4 14 -79 -1 -40
-8 -70 -21 -90 l-19 -30 0 39 c0 33 -3 38 -20 33 -28 -7 -40 20 -40 90 0 41
-3 54 -10 43 -5 -8 -10 -34 -10 -56 0 -36 -3 -43 -25 -48 -24 -6 -25 -7 -10
-36 9 -18 11 -31 5 -35 -6 -3 -8 -16 -6 -28 1 -12 1 -16 -1 -10 -11 33 -32
-16 -33 -76 0 -23 18 0 23 29 3 18 5 15 6 -12 1 -31 -3 -38 -17 -38 -11 0 -24
-11 -30 -25 -8 -18 -20 -25 -39 -26 -47 -1 4 -17 57 -18 31 -1 41 -4 33 -12
-17 -17 -94 -19 -110 -3 -21 21 -35 17 -29 -8 3 -13 -2 -7 -10 12 -24 51 -22
211 4 322 36 158 -1 92 -53 -95 -15 -51 -15 -70 -5 -145 16 -113 29 -138 95
-190 91 -71 135 -87 245 -87 113 0 174 20 219 70 37 42 47 93 33 156 -9 36 -9
55 0 74 13 30 9 29 78 5 67 -23 234 -27 293 -6 98 35 148 113 168 261 24 181
1 250 -136 408 -47 54 -85 105 -85 113 0 18 -58 200 -77 242 -19 40 -34 40
-155 6 -95 -26 -107 -24 -108 18 0 9 -3 23 -6 32 -6 14 30 16 359 16 l364 0
15 73 c12 60 12 74 1 74 -7 0 -13 -6 -13 -14 0 -7 -11 -13 -25 -13 -25 0 -25
0 -10 30 15 29 35 40 35 20 0 -21 28 -9 34 15 13 50 156 769 156 782 0 9 -17
13 -61 13 -54 0 -60 -2 -49 -15 7 -8 21 -15 31 -15 10 0 21 -9 24 -20 3 -11
11 -20 16 -20 6 0 9 -10 7 -22 -2 -16 -12 -24 -33 -28 -29 -5 -50 -40 -24 -40
13 0 38 -29 39 -46 0 -7 -11 -14 -24 -16 -27 -5 -59 9 -51 22 3 5 -2 21 -11
36 -14 21 -15 30 -6 45 18 28 15 47 -13 75 -14 14 -25 29 -25 34 0 6 -40 10
-90 10 -73 0 -90 3 -90 15 0 18 -40 20 -41 3 0 -7 -5 -3 -11 10 -9 17 -8 26 2
35 10 10 11 9 5 -3 -7 -13 -6 -13 7 0 17 16 35 96 21 87 -5 -3 -9 3 -9 14 0
22 24 26 32 4 9 -22 27 -18 21 5 -3 11 -1 22 3 25 9 6 8 24 -4 43 -5 8 -3 11
5 10 13 -3 29 54 24 84 -2 10 2 18 8 18 7 0 6 4 -3 10 -8 5 -80 9 -160 9 -80
0 -140 -3 -134 -5 14 -6 9 -65 -7 -74 -7 -5 -9 -16 -5 -26 6 -18 5 -18 -9 0
-12 16 -17 17 -30 6 -10 -8 -15 -9 -15 -1 0 6 -10 10 -22 8 -14 -1 -22 3 -21
11 2 6 -2 12 -7 12 -6 0 -10 -4 -10 -8 0 -5 -18 -7 -40 -5 -25 3 -40 0 -40 -7
0 -6 3 -9 8 -7 4 3 12 0 17 -7 8 -8 4 -21 -12 -45 -13 -19 -23 -30 -23 -26 0
4 -9 0 -20 -10 -15 -14 -23 -16 -32 -7 -8 8 -14 7 -23 -4 -9 -13 -11 -9 -13
22 -2 20 -7 45 -13 56 -15 28 6 48 47 45 18 -1 33 3 33 8 -1 6 -5 9 -9 8 -4
-1 -3 9 4 22 6 13 13 20 14 15 2 -6 8 -8 13 -4 33 20 -33 24 -359 24 -251 -1
-352 -4 -339 -11 17 -10 17 -12 2 -29 -10 -11 -24 -16 -33 -13 -11 5 -13 3 -7
-7 6 -9 4 -11 -4 -5 -8 4 -11 18 -7 36 3 16 1 29 -4 29 -6 0 -11 -8 -11 -17z
m708 -8 c0 -8 -4 -12 -9 -9 -5 3 -6 10 -3 15 9 13 12 11 12 -6z m-290 -90 c4
-4 2 -5 -4 -1 -8 4 -13 1 -13 -8 0 -9 -5 -16 -10 -16 -6 0 -15 -11 -20 -25
-11 -28 -47 -34 -56 -10 -4 8 -10 13 -14 10 -5 -3 -12 0 -16 6 -4 7 -3 9 4 5
6 -3 13 3 17 14 7 20 25 28 25 10 0 -5 8 -10 17 -10 9 0 13 3 10 7 -9 8 23 31
40 29 7 -1 16 -6 20 -11z m-397 -1 c0 -8 -19 -13 -24 -6 -3 5 1 9 9 9 8 0 15
-2 15 -3z m80 -36 c0 -9 3 -9 12 0 7 7 18 12 25 12 11 0 10 -7 -2 -36 -8 -20
-12 -40 -9 -45 3 -5 -6 -13 -20 -19 -15 -5 -26 -17 -26 -28 0 -11 -7 -18 -19
-18 -11 0 -18 3 -15 7 6 11 -7 39 -16 34 -5 -3 -11 -1 -15 5 -4 6 -11 7 -17 4
-7 -5 -8 -2 -3 5 5 9 10 10 18 2 7 -7 15 -7 26 2 12 9 13 9 7 0 -14 -24 2 -13
19 13 12 19 14 29 5 39 -7 8 -9 19 -5 25 9 14 35 13 35 -2z m65 -17 c3 -5 2
-12 -3 -15 -5 -3 -9 1 -9 9 0 17 3 19 12 6z m235 -15 c0 -3 -4 -8 -10 -11 -5
-3 -10 -1 -10 4 0 6 5 11 10 11 6 0 10 -2 10 -4z m-67 -30 c3 3 4 -2 3 -11 -1
-10 -10 -21 -19 -27 -18 -9 -20 -7 -30 39 -5 21 -4 21 17 8 13 -9 25 -12 29
-9z m-173 -1 c-5 -7 -9 -14 -7 -16 1 -2 0 -3 -2 -1 -11 7 -7 29 5 29 9 0 11
-4 4 -12z m406 0 c9 -8 12 -15 8 -15 -5 0 -3 -5 4 -12 23 -23 14 -41 -17 -36
-17 2 -28 1 -25 -3 2 -4 0 -10 -5 -14 -6 -3 -7 -13 -4 -23 3 -9 3 -14 -2 -10
-4 4 -14 3 -22 -4 -7 -6 -16 -8 -20 -4 -3 3 0 6 8 6 11 0 11 2 -1 10 -8 5 -10
10 -4 10 7 0 9 10 6 25 -2 14 -8 23 -12 20 -5 -3 -6 4 -3 15 3 11 9 17 14 14
5 -2 16 4 26 16 21 24 30 25 49 5z m-589 -37 c-3 -7 -5 -2 -5 12 0 14 2 19 5
13 2 -7 2 -19 0 -25z m466 25 c-7 -2 -21 -2 -30 0 -10 3 -4 5 12 5 17 0 24 -2
18 -5z m653 -26 c-2 -16 -11 -22 -32 -24 -28 -2 -28 -1 -9 13 11 8 21 19 21
24 3 20 4 21 14 15 5 -3 8 -16 6 -28z m34 13 c8 -15 8 -20 -3 -20 -7 0 -13 9
-13 20 0 11 1 20 3 20 1 0 7 -9 13 -20z m-865 -11 c-4 -5 -12 -9 -18 -8 -9 0
-8 2 1 6 6 2 9 10 6 15 -4 7 -2 8 5 4 6 -4 9 -12 6 -17z m-59 -4 c18 -15 18
-15 0 -8 -15 5 -17 3 -11 -8 8 -12 6 -12 -8 0 -34 27 -16 43 19 16z m-61 -33
c-10 -10 -16 -12 -13 -7 3 6 8 19 13 30 5 14 9 16 12 7 3 -8 -3 -21 -12 -30z
m-125 2 c0 -8 -4 -12 -10 -9 -5 3 -10 13 -10 21 0 8 5 12 10 9 6 -3 10 -13 10
-21z m335 -6 c-3 -11 0 -29 5 -39 7 -12 6 -20 -2 -25 -7 -4 -8 -3 -4 4 5 8 -3
12 -26 12 -25 0 -29 -3 -18 -10 9 -6 10 -10 3 -10 -6 0 -14 4 -18 9 -3 6 -17
6 -34 1 -27 -7 -29 -6 -25 13 2 12 8 23 14 25 6 2 6 10 0 23 -12 22 -1 25 19
7 11 -10 13 -10 7 0 -5 8 0 12 14 12 12 0 19 -4 16 -8 -2 -4 -1 -14 3 -21 6
-9 10 -5 15 13 8 31 37 25 31 -6z m64 9 c11 3 21 -2 24 -11 4 -10 1 -13 -9 -9
-8 3 -14 -1 -14 -11 0 -9 7 -16 15 -16 20 0 19 -25 -2 -56 -14 -22 -14 -27 -2
-34 25 -16 -7 -35 -56 -32 -48 2 -60 -6 -39 -26 9 -8 14 -9 14 -2 0 6 5 8 10
5 15 -9 12 -45 -4 -45 -8 0 -16 -3 -19 -7 -2 -5 -2 -3 -1 4 2 6 -4 14 -12 17
-9 4 -12 2 -8 -5 4 -6 1 -15 -6 -19 -18 -11 -62 10 -56 27 7 18 -2 16 -22 -3
-14 -15 -16 -15 -23 4 -9 23 -40 20 -60 -4 -9 -11 -8 -14 4 -14 8 0 17 5 19
10 5 17 36 -12 43 -40 3 -15 0 -33 -9 -45 -13 -19 -14 -18 -10 10 2 17 2 25
-1 19 -3 -7 -15 -10 -25 -7 -16 4 -20 0 -20 -18 0 -13 -9 -30 -19 -36 -15 -10
-22 -9 -35 6 -18 19 -12 33 10 24 12 -4 12 -1 -1 23 -7 15 -12 31 -9 36 3 4
-2 8 -11 8 -9 0 -13 5 -10 10 3 6 0 10 -8 10 -8 0 -20 6 -26 14 -9 11 -8 18 6
31 11 12 18 14 21 6 2 -6 7 -9 12 -6 5 3 15 -1 23 -9 13 -13 17 -13 32 4 13
14 22 17 35 10 12 -6 17 -5 17 6 0 7 -4 14 -8 14 -4 0 -7 9 -6 19 1 14 5 17
12 11 7 -6 16 -5 23 2 8 8 9 5 5 -11 -3 -13 -1 -21 6 -21 7 0 9 -5 5 -12 -5
-8 -1 -7 10 2 16 12 20 12 35 -8 21 -28 36 -17 16 12 -17 24 -19 36 -5 36 6 0
10 -9 10 -21 0 -11 5 -17 10 -14 6 4 9 14 8 22 -2 12 7 17 31 20 30 4 33 2 28
-16 -3 -12 -1 -21 4 -21 5 0 9 9 9 20 0 10 10 25 22 31 14 8 18 14 10 17 -6 2
-10 8 -7 12 3 5 13 6 23 3 15 -6 15 -5 3 10 -7 9 -18 17 -24 17 -19 0 -36 34
-24 49 6 7 13 9 15 3 1 -5 11 -8 21 -5z m614 -21 c-5 -7 -9 -5 -11 7 -2 9 -8
14 -14 11 -7 -4 -8 -2 -4 5 6 9 11 9 22 0 7 -6 11 -16 7 -23z m87 20 c0 -8 -4
-17 -9 -20 -10 -7 -23 19 -14 28 11 11 23 6 23 -8z m-133 -22 c-3 -3 -12 -4
-19 -1 -8 3 -5 6 6 6 11 1 17 -2 13 -5z m-959 -25 c-20 -13 -28 -11 -22 5 3 8
12 12 21 9 12 -5 12 -7 1 -14z m138 -2 c2 -13 -8 -23 -29 -32 -18 -8 -26 -14
-19 -15 19 0 6 -17 -18 -23 -11 -3 -18 -1 -14 4 9 16 -7 33 -18 18 -8 -11 -9
-11 -5 1 2 8 9 15 15 15 5 0 14 3 18 8 4 4 16 7 26 7 10 0 18 4 18 10 0 5 -7
7 -15 4 -9 -4 -15 0 -15 9 0 23 52 17 56 -6z m-69 0 c0 -8 -6 -14 -14 -14 -9
0 -10 4 -2 14 6 7 12 13 14 13 1 0 2 -6 2 -13z m511 3 c-10 -6 -25 -7 -40 -1
-20 9 -18 10 17 10 31 0 36 -2 23 -9z m-403 -59 c-14 -12 -16 -13 -9 -1 5 8 9
18 10 23 1 4 3 13 4 20 1 6 4 4 7 -7 3 -10 -3 -26 -12 -35z m-240 30 c3 -5 2
-12 -3 -15 -5 -3 -9 1 -9 9 0 17 3 19 12 6z m561 -4 c4 -4 0 -7 -9 -7 -9 0
-18 4 -21 9 -7 10 20 9 30 -2z m-506 -43 c0 -8 9 -14 20 -14 17 0 18 -3 9 -19
-13 -20 -49 -45 -55 -38 -3 3 1 11 9 19 10 10 11 21 5 38 -7 18 -11 21 -17 11
-7 -10 -9 -10 -14 2 -8 21 13 39 30 26 7 -7 13 -18 13 -25z m144 -16 c-8 -13
-14 -5 -19 23 -4 23 -4 23 10 5 8 -10 12 -23 9 -28z m676 32 c0 -5 -7 -10 -15
-10 -8 0 -15 5 -15 10 0 6 7 10 15 10 8 0 15 -4 15 -10z m110 -26 c0 -33 -33
-30 -38 4 -3 17 2 22 17 22 16 0 21 -6 21 -26z m-130 -20 c16 -40 13 -66 -7
-62 -12 2 -18 13 -19 29 -1 15 -4 34 -7 43 -4 10 -1 16 9 16 8 0 19 -12 24
-26z m-693 9 c-4 -3 -2 -12 3 -18 7 -9 4 -12 -12 -11 -12 0 -23 7 -26 15 -3 8
0 11 6 7 6 -3 13 -2 17 4 3 5 9 10 12 10 4 0 3 -3 0 -7z m623 -7 c0 -16 -18
-31 -27 -22 -8 8 5 36 17 36 5 0 10 -6 10 -14z m151 -25 c4 -3 3 -17 -2 -30
-8 -21 -12 -23 -23 -10 -8 8 -17 25 -21 37 -6 22 -5 23 17 17 12 -4 26 -10 29
-14z m-273 -9 c3 -9 -2 -13 -14 -10 -9 1 -19 9 -22 16 -3 9 2 13 14 10 9 -1
19 -9 22 -16z m-595 -35 c8 -21 -7 -39 -26 -31 -13 5 -14 10 -6 25 11 22 25
25 32 6z m367 -12 c0 -8 -4 -15 -10 -15 -5 0 -10 7 -10 15 0 8 5 15 10 15 6 0
10 -7 10 -15z m410 -5 c0 -5 -4 -10 -10 -10 -5 0 -10 5 -10 10 0 6 5 10 10 10
6 0 10 -4 10 -10z m-720 -40 c0 -8 -29 -35 -31 -29 -7 34 -4 46 13 41 10 -2
18 -8 18 -12z m186 7 c4 -4 2 -7 -5 -7 -7 0 -9 -4 -6 -10 3 -5 -1 -10 -9 -10
-9 0 -16 8 -16 19 0 18 21 23 36 8z m434 -1 c0 -3 -4 -8 -10 -11 -5 -3 -10 -1
-10 4 0 6 5 11 10 11 6 0 10 -2 10 -4z m-698 -20 c7 4 8 2 4 -5 -9 -13 -26 -5
-25 12 0 9 2 8 6 -1 2 -6 10 -9 15 -6z m598 -32 c0 -9 14 -21 30 -27 17 -7 30
-19 30 -29 0 -26 -18 -31 -31 -9 -7 10 -18 17 -25 14 -15 -5 -54 14 -54 27 0
11 29 40 41 40 5 0 9 -7 9 -16z m240 1 c0 -8 -7 -15 -15 -15 -16 0 -20 12 -8
23 11 12 23 8 23 -8z m90 -10 c0 -8 -4 -15 -10 -15 -5 0 -10 7 -10 15 0 8 5
15 10 15 6 0 10 -7 10 -15z m-972 -32 c-8 -10 -6 -17 8 -29 14 -11 15 -17 6
-20 -6 -3 -10 -10 -7 -15 4 -5 -1 -6 -10 -3 -10 4 -13 13 -9 26 4 15 3 18 -7
13 -9 -6 -11 -3 -6 9 5 13 3 17 -7 13 -8 -3 -13 1 -12 11 2 24 17 32 37 19 14
-8 15 -14 7 -24z m90 20 c-2 -12 2 -17 12 -15 8 2 12 0 7 -4 -12 -12 -47 -15
-47 -4 0 10 21 39 28 40 2 0 2 -8 0 -17z m185 -17 c7 3 3 -1 -7 -10 -21 -17
-31 -14 -47 16 -6 11 -7 18 -2 15 5 -3 15 -2 23 3 11 7 16 4 18 -10 2 -12 8
-18 15 -14z m457 30 c0 -3 -4 -8 -10 -11 -5 -3 -10 -1 -10 4 0 6 5 11 10 11 6
0 10 -2 10 -4z m-680 -27 c0 -5 -4 -9 -8 -9 -5 0 -9 7 -9 15 0 8 4 12 9 9 4
-3 8 -9 8 -15z m165 -22 c17 -15 24 -27 17 -27 -6 0 -12 5 -12 11 0 5 -4 7
-10 4 -5 -3 -10 -1 -10 5 0 6 -4 9 -9 5 -6 -3 -15 3 -20 14 -15 28 8 22 44
-12z m565 8 c0 -8 -7 -15 -15 -15 -8 0 -15 7 -15 15 0 8 7 15 15 15 8 0 15 -7
15 -15z m184 -2 c6 -14 8 -14 20 2 17 23 30 4 22 -31 -5 -17 -12 -24 -24 -22
-9 2 -16 9 -15 15 1 6 -6 9 -17 6 -20 -5 -29 -33 -11 -33 5 0 12 -12 15 -26 4
-15 9 -24 12 -21 3 3 14 -2 24 -10 16 -14 17 -17 1 -35 -9 -10 -16 -24 -16
-31 0 -15 -27 -17 -38 -2 -5 5 -6 -2 -3 -17 8 -36 -8 -44 -27 -14 -15 22 -14
25 8 44 14 12 31 19 40 16 10 -4 15 0 15 15 0 12 -4 21 -10 21 -5 0 -10 6 -10
13 0 15 -45 57 -61 57 -6 0 -9 7 -5 15 3 8 1 15 -4 15 -6 0 -10 -6 -10 -13 0
-14 35 -47 50 -47 6 0 10 -8 10 -18 0 -10 5 -23 10 -28 7 -7 6 -11 -4 -11 -8
0 -13 4 -10 9 3 4 0 8 -7 8 -6 0 -18 8 -26 18 -13 15 -14 14 -9 -15 3 -19 1
-33 -4 -33 -6 0 -10 7 -10 16 0 9 -5 12 -12 8 -8 -5 -9 0 -5 15 3 13 3 20 0
17 -7 -7 -33 19 -33 33 0 6 9 16 20 23 11 7 20 18 20 25 0 7 11 13 24 13 14 0
27 4 30 8 9 14 44 11 50 -5z m-1031 -18 c-3 -9 -8 -14 -10 -11 -3 3 -2 9 2 15
9 16 15 13 8 -4z m181 -12 c-4 -16 -13 -33 -20 -39 -8 -6 -14 -18 -14 -26 0
-20 24 -40 35 -30 5 4 5 1 1 -6 -4 -7 -13 -9 -19 -5 -6 4 -30 8 -52 9 -53 3
-53 3 -33 17 9 8 18 19 20 27 5 24 41 60 60 60 10 0 18 5 18 10 0 6 2 10 5 10
3 0 3 -12 -1 -27z m474 16 c1 -1 8 -2 15 -3 11 -1 13 -44 2 -55 -3 -2 -22 1
-43 7 -23 8 -38 8 -40 2 -7 -18 -22 -10 -22 11 0 28 28 48 60 44 14 -2 26 -4
28 -6z m232 -13 c0 -14 -29 -31 -38 -21 -6 6 18 35 29 35 5 0 9 -6 9 -14z
m-573 -45 c-5 -21 -2 -31 10 -35 20 -8 22 -5 25 27 3 32 9 33 32 8 12 -13 14
-21 6 -26 -6 -4 -9 -12 -7 -18 6 -19 -16 -36 -35 -26 -39 21 -58 -42 -24 -77
18 -17 18 -18 0 -25 -11 -3 -25 -4 -31 -2 -8 3 -13 -4 -13 -20 0 -13 -8 -31
-17 -38 -16 -13 -17 -12 -5 3 16 21 0 33 -26 19 -24 -13 -31 -6 -25 20 6 22 8
23 34 9 21 -12 22 -10 23 52 1 20 -2 34 -6 32 -4 -2 -9 0 -13 6 -3 5 -11 10
-16 10 -6 0 -7 -6 -3 -12 6 -9 3 -9 -9 0 -13 11 -14 17 -5 32 7 10 16 16 20
14 9 -6 44 17 47 31 2 5 -8 13 -21 19 -22 9 -21 10 12 16 19 4 39 8 44 9 5 0
6 -12 3 -28z m473 -27 c0 -2 -3 -3 -7 -3 -23 4 -43 -2 -38 -11 4 -6 -3 -9 -17
-7 -13 2 -22 7 -20 10 1 4 2 12 2 18 0 5 4 8 9 5 5 -3 12 1 15 9 5 14 8 14 31
-1 14 -9 25 -18 25 -20z m-580 6 c0 -5 -4 -10 -10 -10 -5 0 -10 5 -10 10 0 6
5 10 10 10 6 0 10 -4 10 -10z m640 1 c0 -12 -20 -25 -27 -18 -7 7 6 27 18 27
5 0 9 -4 9 -9z m-166 -10 c-8 -8 -43 -8 -38 0 2 4 13 7 24 6 10 -1 17 -3 14
-6z m79 -41 c-3 -12 -8 -19 -11 -16 -5 6 5 36 12 36 2 0 2 -9 -1 -20z m51 11
c3 -5 -2 -15 -12 -22 -15 -12 -16 -12 -5 2 7 9 10 19 6 22 -3 4 -4 7 0 7 3 0
8 -4 11 -9z m-299 -10 c3 -5 2 -12 -3 -15 -5 -3 -9 1 -9 9 0 17 3 19 12 6z
m200 -9 c-3 -3 -11 0 -18 7 -9 10 -8 11 6 5 10 -3 15 -9 12 -12z m-94 -21 c1
-9 2 -26 2 -38 1 -22 9 -28 32 -23 5 1 6 -2 2 -6 -4 -5 -20 -8 -35 -9 -32 0
-62 42 -40 57 10 6 10 8 1 8 -7 0 -13 8 -13 18 0 14 2 15 10 2 9 -13 14 -7 11
12 0 4 6 5 14 2 8 -4 16 -14 16 -23z m838 10 c12 -21 5 -31 -21 -31 -10 0 -18
-4 -18 -10 0 -5 -9 -14 -20 -20 -18 -10 -20 -8 -20 20 0 19 5 30 14 30 7 0 19
7 26 15 17 20 27 19 39 -4z m-1061 -19 c2 -12 8 -20 13 -16 5 3 7 9 5 12 -2 4
13 6 34 4 21 -2 46 1 56 6 16 8 19 6 20 -14 1 -16 -4 -24 -15 -25 -14 -1 -14
-2 2 -6 18 -5 23 -38 7 -48 -6 -4 -7 1 -3 11 5 14 3 15 -17 4 -15 -8 -20 -8
-16 -1 4 7 -1 11 -13 11 -11 0 -23 5 -26 10 -9 15 -25 12 -25 -5 0 -18 -16
-20 -23 -2 -4 9 -8 8 -16 -3 -10 -13 -15 -11 -36 15 -30 36 -32 55 -6 55 11 0
23 5 26 11 10 16 30 5 33 -19z m283 -6 c10 -13 42 2 33 15 -4 8 -3 9 5 5 9 -6
9 -11 1 -21 -8 -10 -7 -16 7 -24 17 -10 17 -10 -1 -11 -14 0 -16 -3 -7 -13 8
-10 7 -14 -4 -14 -7 0 -14 3 -13 6 2 19 -4 22 -19 10 -11 -10 -14 -10 -9 -1 5
8 0 12 -13 12 -14 0 -19 5 -15 15 4 8 1 21 -5 29 -6 7 -8 16 -4 19 6 7 31 -9
44 -27z m-696 -45 c-3 -5 9 -11 27 -13 28 -3 34 -7 36 -32 2 -16 -2 -34 -9
-40 -9 -8 -10 -8 -5 2 5 8 0 13 -13 14 -12 0 -27 1 -33 2 -20 2 -27 18 -17 38
5 10 7 18 4 18 -4 0 -3 5 0 10 3 6 8 10 11 10 3 0 3 -4 -1 -9z m1135 5 c0 -2
-8 -10 -17 -17 -16 -13 -17 -12 -4 4 13 16 21 21 21 13z m58 -19 c2 -9 -2 -17
-8 -17 -8 0 -11 -11 -8 -31 5 -34 -10 -46 -39 -33 -10 4 -21 7 -24 6 -3 0 -6
6 -6 13 0 11 4 12 13 4 8 -6 14 -6 18 0 3 5 1 11 -6 13 -22 8 9 65 35 63 12
-1 23 -9 25 -18z m-257 -14 c14 -17 17 -22 5 -13 -11 8 -33 15 -49 15 -17 0
-32 6 -34 13 -9 25 52 13 78 -15z m-233 -51 c1 -13 -4 -33 -11 -45 -6 -12 -13
-26 -13 -32 -1 -5 -2 -14 -3 -18 -2 -14 -31 21 -31 37 0 15 12 21 33 17 5 -1
5 3 2 9 -4 6 -14 9 -24 5 -10 -4 -8 1 7 15 12 12 20 26 16 31 -3 6 -13 1 -21
-11 -19 -27 -40 -12 -24 18 6 10 7 23 3 27 -4 4 9 -1 29 -11 23 -12 36 -26 37
-42z m747 21 c-5 -10 -11 -36 -14 -58 -3 -22 -9 -35 -13 -29 -10 15 -7 77 5
92 14 18 30 15 22 -5z m-931 -24 c-8 -14 -31 -11 -31 5 0 8 8 11 19 8 10 -2
15 -8 12 -13z m239 8 c3 -9 -2 -13 -16 -12 -11 1 -23 7 -25 13 -5 17 35 15 41
-1z m240 -16 c-3 -11 -14 -21 -24 -24 -18 -5 -17 -3 3 19 28 29 27 29 21 5z
m-756 -16 c0 -8 -6 -16 -14 -19 -11 -4 -11 -1 -3 14 13 24 17 25 17 5z m-240
-9 c-3 -8 1 -20 9 -26 18 -16 18 -31 -1 -24 -8 4 -13 10 -10 14 3 5 1 11 -4
15 -10 5 -4 35 6 35 3 0 3 -6 0 -14z m283 10 c0 -2 -8 -10 -17 -17 -16 -13
-17 -12 -4 4 13 16 21 21 21 13z m440 -16 c0 -5 -5 -10 -11 -10 -5 0 -7 5 -4
10 3 6 8 10 11 10 2 0 4 -4 4 -10z m-754 -49 c11 9 15 9 10 2 -5 -9 1 -13 21
-13 22 0 29 -5 29 -19 0 -11 -4 -17 -9 -14 -5 3 -7 -3 -5 -13 2 -10 -6 -22
-18 -29 -11 -5 -19 -16 -16 -23 2 -7 8 -9 14 -6 6 4 23 8 39 9 24 2 27 0 18
-11 -7 -8 -21 -13 -33 -12 -27 4 -36 -16 -10 -20 10 -2 24 -9 29 -14 7 -7 6
-9 -1 -5 -6 3 -22 0 -37 -8 -19 -9 -29 -10 -33 -3 -4 6 -3 8 3 5 5 -3 10 0 10
8 0 12 -3 12 -19 1 -11 -8 -28 -11 -39 -9 -19 5 -19 6 1 23 11 9 16 21 12 26
-4 4 1 2 10 -5 18 -13 42 -6 32 10 -3 5 -10 7 -15 4 -5 -3 -6 1 -3 10 4 10 2
15 -6 13 -7 -2 -14 5 -15 15 -3 16 8 21 42 20 16 -1 12 35 -5 42 -10 3 -12 0
-9 -10 4 -8 2 -17 -4 -20 -5 -4 -12 1 -15 9 -3 9 -9 14 -13 12 -4 -3 -13 -1
-21 5 -13 7 -12 9 3 9 9 0 17 6 17 13 0 8 3 8 9 -2 8 -13 12 -13 27 0z m290
-23 c4 -7 3 -8 -4 -4 -7 4 -12 3 -12 -2 0 -10 -36 -9 -46 1 -4 4 -1 13 6 22
13 15 41 7 56 -17z m374 22 c0 -5 -4 -10 -10 -10 -5 0 -10 5 -10 10 0 6 5 10
10 10 6 0 10 -4 10 -10z m290 6 c0 -3 -4 -8 -10 -11 -5 -3 -10 -1 -10 4 0 6 5
11 10 11 6 0 10 -2 10 -4z m-521 -37 c-16 -30 -69 -52 -69 -29 0 6 7 10 15 10
8 0 15 8 15 19 0 13 7 19 25 19 21 0 23 -3 14 -19z m255 -10 c-3 -5 -10 -7
-15 -3 -5 3 -7 10 -3 15 3 5 10 7 15 3 5 -3 7 -10 3 -15z m-744 1 c0 -5 -5
-10 -11 -10 -5 0 -7 5 -4 10 3 6 8 10 11 10 2 0 4 -4 4 -10z m1050 -10 c0 -5
-4 -10 -10 -10 -5 0 -10 5 -10 10 0 6 5 10 10 10 6 0 10 -4 10 -10z m-750 -17
c0 -7 -4 -13 -9 -13 -5 0 -11 6 -14 13 -3 8 1 14 9 14 8 0 14 -6 14 -14z
m-291 -6 c-2 -2 -11 -8 -20 -15 -12 -9 -16 -9 -16 1 0 7 9 14 20 14 11 1 18 1
16 0z m737 -13 c-3 -9 -6 -20 -6 -26 0 -20 -25 -1 -26 20 -1 16 5 22 18 22 14
0 18 -5 14 -16z m291 -9 c-4 -8 -11 -15 -17 -15 -14 0 -13 27 3 33 16 6 21 1
14 -18z m-627 1 c0 -22 -16 -28 -29 -12 -9 11 -9 15 1 19 22 9 28 8 28 -7z
m580 -27 c0 -5 -4 -9 -9 -9 -5 0 -16 -3 -25 -6 -13 -5 -16 1 -16 25 0 31 0 31
25 15 14 -9 25 -20 25 -25z m-980 9 c0 -18 -2 -20 -9 -8 -6 8 -7 18 -5 22 9
14 14 9 14 -14z m1370 -34 c0 -8 -4 -12 -10 -9 -5 3 -10 10 -10 16 0 5 5 9 10
9 6 0 10 -7 10 -16z m135 6 c3 -5 1 -10 -4 -10 -6 0 -11 5 -11 10 0 6 2 10 4
10 3 0 8 -4 11 -10z m-81 -39 c-4 -3 -9 -1 -11 6 -2 7 -11 9 -19 6 -8 -3 -14
-1 -14 4 0 20 14 22 32 6 10 -9 15 -19 12 -22z m-224 -36 c5 3 11 1 14 -4 4
-5 2 -12 -3 -15 -5 -4 -12 -2 -16 4 -3 5 -15 10 -26 10 -24 0 -24 5 -1 28 16
17 17 16 20 -5 2 -13 7 -21 12 -18z m168 18 c2 -9 -8 -13 -31 -13 -20 0 -38
-6 -40 -12 -3 -7 -6 -3 -6 9 -1 31 67 45 77 16z m-228 -37 c0 -11 -19 -15 -25
-6 -3 5 1 10 9 10 9 0 16 -2 16 -4z m124 -22 c9 -22 -3 -32 -14 -14 -12 19
-12 30 -1 30 5 0 12 -7 15 -16z m66 6 c0 -5 -4 -10 -10 -10 -5 0 -10 5 -10 10
0 6 5 10 10 10 6 0 10 -4 10 -10z m-516 -87 c21 -61 21 -60 -14 -68 -58 -13
-67 -65 -28 -172 12 -34 33 -47 24 -15 -3 9 -8 43 -12 75 -5 45 -3 57 7 57 8
0 31 3 52 6 33 6 37 4 37 -15 0 -12 -6 -21 -15 -21 -8 0 -15 7 -15 15 0 8 -5
15 -11 15 -6 0 -9 -6 -6 -12 2 -7 12 -57 22 -110 19 -98 40 -136 30 -55 -4 39
-3 38 10 -12 7 -30 19 -58 27 -62 9 -6 3 -9 -17 -9 -30 1 -70 22 -59 33 7 6
-13 12 -94 28 -35 6 -59 15 -54 18 5 3 17 80 27 171 9 91 19 168 22 173 2 4
15 7 28 7 19 0 26 -9 39 -47z m-840 12 c-4 -8 -10 -15 -15 -15 -5 0 -9 7 -9
15 0 8 7 15 15 15 9 0 12 -6 9 -15z m346 -25 c0 -5 -4 -10 -10 -10 -5 0 -10 5
-10 10 0 6 5 10 10 10 6 0 10 -4 10 -10z m-180 -19 c0 -6 -9 -9 -19 -8 -11 0
-17 5 -15 9 7 11 34 10 34 -1z m338 -9 c3 -9 -2 -13 -14 -10 -9 1 -19 9 -22
16 -3 9 2 13 14 10 9 -1 19 -9 22 -16z m-393 -1 c-3 -2 -16 -6 -28 -8 -15 -2
-18 0 -9 5 14 9 45 12 37 3z m424 -38 c1 -7 -3 -13 -9 -13 -5 0 -10 15 -9 33
0 27 2 29 9 12 5 -11 9 -26 9 -32z m576 16 c9 -17 15 -33 13 -35 -3 -2 -12 12
-21 31 -21 43 -13 47 8 4z m-1055 11 c0 -5 -4 -10 -10 -10 -5 0 -10 5 -10 10
0 6 5 10 10 10 6 0 10 -4 10 -10z m33 -37 c17 -20 31 -87 16 -77 -5 3 -7 10
-4 15 4 5 1 9 -4 9 -15 0 -14 -26 2 -42 14 -15 16 -33 4 -45 -5 -4 -7 -3 -5 2
2 6 -1 11 -7 12 -5 0 -9 -3 -7 -9 1 -5 -1 -7 -6 -4 -4 2 -9 24 -10 48 -2 24
-8 48 -15 53 -15 13 -10 55 7 55 7 0 20 -8 29 -17z m933 2 c10 -8 14 -15 8
-15 -5 0 -19 7 -30 15 -10 8 -14 15 -8 15 5 0 19 -7 30 -15z m-881 -33 c-3 -3
0 -11 7 -19 8 -11 7 -12 -5 -7 -21 7 -29 31 -11 31 8 0 12 -3 9 -5z m752 -74
c-3 -8 -6 -5 -6 6 -1 11 2 17 5 13 3 -3 4 -12 1 -19z m-653 -14 c9 -3 16 -10
16 -15 0 -14 -26 -10 -40 6 -13 16 -3 20 24 9z m663 -36 c-3 -7 -5 -2 -5 12 0
14 2 19 5 13 2 -7 2 -19 0 -25z m-835 -2 c7 4 8 2 4 -5 -9 -13 -26 -5 -25 12
0 9 2 8 6 -1 2 -6 10 -9 15 -6z m74 -13 c-3 -7 1 -10 9 -7 10 4 12 0 8 -15 -6
-23 21 -56 37 -46 5 3 10 14 9 23 0 10 -3 12 -5 5 -7 -16 -34 -5 -34 14 0 8 5
11 12 7 8 -5 9 -2 5 10 -5 14 -3 15 12 6 25 -13 29 -27 20 -75 -4 -23 -3 -41
2 -43 14 -5 11 -29 -5 -35 -7 -3 -23 1 -35 10 -17 12 -20 18 -10 29 6 8 18 14
25 14 8 0 14 5 14 10 0 12 -22 9 -32 -4 -10 -15 -40 15 -35 35 4 14 2 15 -20
4 -13 -7 -31 -21 -39 -31 -9 -11 -13 -14 -10 -8 7 14 -21 27 -36 17 -7 -4 -8
-1 -3 7 4 7 2 16 -6 21 -11 7 -11 9 -1 9 7 0 11 4 8 8 -3 4 9 7 25 6 22 -2 29
2 27 14 -2 12 3 16 16 14 10 -2 16 0 13 5 -3 5 3 9 14 9 11 0 18 -5 15 -13z
m294 -3 c0 -5 -4 -10 -10 -10 -5 0 -10 5 -10 10 0 6 5 10 10 10 6 0 10 -4 10
-10z m30 -15 c0 -8 -4 -15 -10 -15 -5 0 -10 7 -10 15 0 8 5 15 10 15 6 0 10
-7 10 -15z m-40 -40 c0 -5 -12 -10 -27 -10 -16 0 -31 -4 -35 -10 -5 -6 -8 -3
-8 7 0 9 6 19 13 22 19 8 58 2 57 -9z m192 -12 c-20 -20 -34 -47 -44 -90 -9
-35 -12 -63 -8 -63 5 0 11 -8 13 -17 3 -12 7 -8 12 15 13 57 22 43 12 -19 -10
-57 -11 -59 -41 -59 -67 0 -74 6 -64 58 4 26 16 76 26 112 18 69 40 90 95 90
l28 0 -29 -27z m-582 -28 c0 -2 -6 -8 -13 -14 -10 -8 -14 -7 -14 2 0 8 6 14
14 14 7 0 13 -1 13 -2z m107 -10 c0 -6 -6 -12 -12 -12 -6 0 -12 6 -12 12 0 6
6 12 12 12 6 0 12 -6 12 -12z m183 -6 c0 -5 -4 -9 -10 -9 -5 0 -10 7 -10 16 0
8 5 12 10 9 6 -3 10 -10 10 -16z m65 11 c3 -5 1 -10 -4 -10 -6 0 -11 5 -11 10
0 6 2 10 4 10 3 0 8 -4 11 -10z m735 -10 c0 -11 4 -20 9 -20 12 0 91 -84 108
-113 18 -31 16 -51 -7 -80 l-20 -25 -69 72 c-37 39 -74 82 -81 96 -8 14 -15
20 -17 13 -7 -19 22 -65 71 -113 45 -43 46 -44 24 -56 -29 -15 -57 -2 -85 39
-26 39 -70 163 -61 172 5 6 91 30 121 34 4 1 7 -8 7 -19z m-1061 -14 c8 -10 9
-16 1 -21 -5 -3 -10 -15 -10 -27 0 -16 3 -18 13 -10 9 8 16 6 24 -7 10 -16 8
-18 -20 -15 -23 3 -28 1 -17 -6 8 -5 11 -12 7 -17 -10 -10 -28 18 -20 31 4 5
-3 7 -14 4 -21 -6 -25 6 -10 30 5 7 14 9 20 6 9 -5 9 -4 0 6 -12 13 -7 40 7
40 4 0 13 -6 19 -14z m768 -33 c-3 -10 -5 -4 -5 12 0 17 2 24 5 18 2 -7 2 -21
0 -30z m-676 10 c13 -16 12 -17 -3 -4 -10 7 -18 15 -18 17 0 8 8 3 21 -13z
m89 -23 c0 -5 -4 -10 -9 -10 -5 0 -13 -9 -16 -20 -4 -11 -10 -18 -15 -15 -11
7 12 55 28 55 6 0 12 -4 12 -10z m-95 -59 c-17 -17 -17 -13 2 37 6 16 6 16 11
-2 2 -10 -4 -26 -13 -35z m42 29 c-5 -31 -17 -37 -15 -7 1 15 6 27 10 27 4 0
7 -9 5 -20z m73 -15 c0 -14 -6 -25 -13 -25 -21 0 -27 11 -16 31 14 27 29 23
29 -6z m60 15 c0 -5 -4 -10 -10 -10 -5 0 -10 5 -10 10 0 6 5 10 10 10 6 0 10
-4 10 -10z m555 -76 c-6 -44 8 -70 46 -88 11 -5 11 -7 1 -12 -27 -13 -42 -37
-42 -69 0 -35 15 -45 74 -45 42 0 29 -6 -30 -14 l-52 -6 -6 37 c-16 95 -17 96
-30 77 -11 -15 -14 -14 -24 12 -9 23 -9 41 2 84 8 30 14 45 15 32 1 -31 17
-20 25 18 9 49 29 26 21 -26z m-865 31 c0 -7 -30 -13 -34 -7 -3 4 4 9 15 9 10
1 19 0 19 -2z m35 -5 c-7 -11 8 -14 19 -3 10 10 37 13 31 3 -6 -10 35 -7 53 4
8 5 10 2 5 -10 -4 -12 -2 -15 8 -12 8 3 13 9 12 14 -1 5 12 9 28 10 16 1 29
-3 29 -8 0 -4 11 -6 25 -2 16 4 25 2 25 -6 0 -6 -4 -8 -10 -5 -5 3 -10 1 -10
-4 0 -15 -27 -14 -33 2 -3 10 -9 10 -26 0 -11 -7 -27 -13 -35 -13 -7 0 -16
-12 -19 -27 l-5 -27 17 23 c15 19 24 22 49 16 21 -4 29 -11 25 -21 -3 -9 1
-14 12 -14 9 0 15 -6 12 -12 -2 -8 -23 -13 -54 -13 -28 0 -49 3 -47 6 4 7 -20
20 -48 25 -9 2 -23 -2 -31 -10 -16 -16 -47 -3 -47 20 0 8 -4 13 -10 9 -5 -3
-7 -12 -3 -20 4 -11 1 -13 -12 -9 -11 4 -13 10 -6 17 13 13 2 39 -13 30 -6 -4
-5 1 3 10 14 17 26 23 18 10 -8 -14 79 -52 94 -41 11 7 11 11 1 15 -6 2 -9 10
-5 16 4 7 0 8 -11 4 -10 -4 -15 -3 -11 3 8 14 -8 13 -22 -1 -17 -17 -37 -1
-22 17 13 16 23 19 14 4z m293 -22 c-2 -6 -10 -14 -16 -16 -7 -2 -10 2 -6 12
7 18 28 22 22 4z m-15 -29 c9 0 17 -4 17 -10 0 -15 -43 -10 -65 8 -19 15 -19
15 5 8 14 -4 33 -7 43 -6z m936 -75 c-44 -47 -54 -23 -12 27 23 27 29 30 31
15 2 -10 -6 -29 -19 -42z m-1136 23 c-5 -11 -7 -11 -28 1 -19 11 -18 12 5 8
14 -1 24 -6 23 -9z m1062 3 c3 -5 1 -10 -4 -10 -6 0 -11 5 -11 10 0 6 2 10 4
10 3 0 8 -4 11 -10z m-1159 -47 c-2 -16 -5 -31 -5 -35 -2 -16 -19 -7 -24 11
-3 12 1 22 10 25 8 3 11 10 8 16 -3 5 -1 10 5 10 6 0 9 -12 6 -27z m-196 11
c0 -8 -19 -13 -24 -6 -3 5 1 9 9 9 8 0 15 -2 15 -3z m246 -22 c-9 -9 -37 8
-31 18 5 8 11 7 21 -1 8 -6 12 -14 10 -17z m99 8 c3 -5 1 -10 -4 -10 -6 0 -11
5 -11 10 0 6 2 10 4 10 3 0 8 -4 11 -10z m648 -67 c6 -9 6 -13 -1 -13 -5 0
-19 16 -31 36 -27 46 -27 54 1 18 12 -16 26 -35 31 -41z m447 42 c-7 -9 -15
-13 -17 -11 -7 7 7 26 19 26 6 0 6 -6 -2 -15z m-1405 -135 c2 -12 1 -20 -2
-16 -4 4 -8 16 -10 28 -2 12 -1 19 2 16 3 -3 8 -16 10 -28z m39 14 c22 -8 20
-21 -4 -27 -15 -4 -20 0 -20 14 0 21 1 22 24 13z m1303 -14 c30 -11 33 -18 20
-50 -3 -8 -8 -22 -10 -30 -4 -12 -6 -11 -6 3 -1 20 -17 23 -24 5 -4 -9 -6 -8
-6 2 -1 8 -6 22 -11 30 -8 12 -14 10 -37 -12 -41 -39 -94 -58 -163 -58 -59 0
-60 1 -61 28 l-1 27 -13 -30 -13 -30 -10 25 c-17 47 -22 79 -12 85 5 3 10 3
10 -2 0 -4 4 -14 9 -21 7 -11 17 -9 52 10 24 12 53 26 64 30 28 10 174 2 212
-12z m103 -42 c0 -12 10 -32 22 -45 21 -22 21 -24 5 -40 -16 -16 -17 -16 -17
5 0 28 -27 82 -41 82 -5 0 -4 6 3 14 16 18 28 11 28 -16z m-1376 -38 c8 -8 7
-10 -5 -5 -21 8 -46 -20 -28 -31 7 -4 15 -2 17 4 3 9 9 9 23 1 11 -5 17 -14
14 -19 -3 -4 1 -10 7 -13 10 -3 10 -7 -1 -21 -13 -15 -15 -15 -34 1 -11 10
-17 12 -13 6 4 -7 5 -13 2 -13 -3 0 -13 14 -21 30 -9 17 -20 28 -24 25 -5 -2
-11 4 -14 15 -3 11 -1 18 4 14 5 -3 9 1 9 9 0 17 46 15 64 -3z m31 11 c3 -5 2
-12 -3 -15 -5 -3 -9 1 -9 9 0 17 3 19 12 6z m245 -11 c0 -5 -11 -10 -25 -10
-14 0 -25 5 -25 10 0 6 11 10 25 10 14 0 25 -4 25 -10z m10 -39 c0 -12 -20
-25 -27 -18 -7 7 6 27 18 27 5 0 9 -4 9 -9z m-270 -86 c0 -8 -9 -19 -19 -24
-14 -8 -22 -7 -32 6 -12 14 -12 16 0 8 11 -6 13 -4 8 8 -4 10 0 17 11 20 22 5
32 -1 32 -18z m745 -63 c-2 -2 7 -16 21 -30 13 -15 24 -34 24 -42 -1 -8 -8 -2
-16 13 -9 16 -21 27 -27 24 -7 -2 -19 10 -29 28 l-16 32 23 -11 c13 -6 22 -12
20 -14z m139 -27 c-4 -8 -11 -15 -16 -15 -6 0 -5 6 2 15 7 8 14 15 16 15 2 0
1 -7 -2 -15z m-45 -24 c-15 -5 -22 6 -14 19 6 9 10 9 16 -1 5 -8 4 -15 -2 -18z"/>
<path d="M1191 2604 c0 -11 3 -14 6 -6 3 7 2 16 -1 19 -3 4 -6 -2 -5 -13z"/>
<path d="M865 2070 c-3 -5 -1 -10 4 -10 6 0 11 5 11 10 0 6 -2 10 -4 10 -3 0
-8 -4 -11 -10z"/>
<path d="M1150 1995 c-10 -12 -9 -15 7 -15 11 0 20 7 20 15 0 8 -4 15 -7 15
-4 0 -13 -7 -20 -15z"/>
<path d="M570 2281 c0 -6 5 -13 10 -16 6 -3 10 1 10 9 0 9 -4 16 -10 16 -5 0
-10 -4 -10 -9z"/>
<path d="M743 678 c-21 -28 -24 -38 -10 -38 8 0 17 10 20 22 7 27 3 33 -10 16z"/>
<path d="M715 610 c-3 -5 1 -10 9 -10 9 0 16 5 16 10 0 6 -4 10 -9 10 -6 0
-13 -4 -16 -10z"/>
</g>
</svg>
